<svg xmlns="http://www.w3.org/2000/svg" width="148.5" height="171.3" viewBox="0 0 148.5 171.3"><path fill="#F1F2F2" d="M69 42.8L30.6 53.1c-4.3 1.2-6.9 5.6-5.7 10l10.3 38.4c1.2 4.3 5.6 6.9 10 5.7l25-6.7V42.6c-.4 0-.8.1-1.2.2z"/><path fill="#26316B" d="M45.2 107.2c-.7.2-1.4.3-2.1.3-3.6 0-6.9-2.4-7.9-6L24.9 63.1c-1.2-4.3 1.4-8.8 5.7-10L69 42.8c.4-.1.8-.2 1.1-.2v-6.1c-.9.1-1.8.2-2.7.4L29.1 47.2c-3.7 1-6.7 3.3-8.6 6.6-2 3.4-2.5 7.2-1.5 10.9l10.3 38.4c1.7 6.2 7.3 10.5 13.8 10.5 1.2 0 2.5-.2 3.7-.5l23.4-6.3v-6.3l-25 6.7z"/><circle cx="55.7" cy="72.6" r="4.1" fill="#26316B"/><circle cx="45.5" cy="88.6" r="4.1" fill="#26316B"/><circle cx="39.5" cy="64.4" r="4.1" fill="#26316B"/><g fill="#26316B"><path d="M104 124.9c.3-.1.6-.1.8-.1-.3 0-.5 0-.8.1zm-60.3-.1c.2 0 .5 0 .8.1-.3-.1-.5-.1-.8-.1z"/><path d="M111.7 123.2c-1.1-2.8-3.7-4.5-6.9-4.5-.6 0-1.2.1-1.8.2-2.2.4-7.4.8-19.7.8-2.9 0-6 0-9-.1-3 0-6.1.1-9 .1-12.3 0-17.5-.5-19.7-.8-.7-.1-1.3-.2-1.8-.2-3.2 0-5.8 1.7-6.9 4.5-1.7 4.3-.1 8.7 13.8 23 7.2 7.4 15.3 15 19.5 18.9 1.3 1.2 2.1 1.9 2.1 1.9l2.1 1.9 2.1-1.9s.8-.7 2.1-1.9c4.2-3.9 12.4-11.5 19.5-18.9 13.7-14.3 15.2-18.7 13.6-23zm-68 1.6c.3 0 .5 0 .8.1-.3-.1-.6-.1-.8-.1zm60.3.1c.3-.1.6-.1.8-.1-.2 0-.5 0-.8.1z"/></g><path fill="#F1F2F2" d="M79.5 42.8l38.4 10.3c4.3 1.2 6.9 5.6 5.7 10l-10.3 38.4c-1.2 4.3-5.6 6.9-10 5.7l-25-6.7V42.6c.4 0 .8.1 1.2.2z"/><path fill="#26316B" d="M103.3 107.2c.7.2 1.4.3 2.1.3 3.6 0 6.9-2.4 7.9-6l10.3-38.4c1.2-4.3-1.4-8.8-5.7-10L79.5 42.8c-.4-.1-.8-.2-1.1-.2v-6.1c.9.1 1.8.2 2.7.4l38.4 10.3c3.7 1 6.7 3.3 8.6 6.6 1.9 3.3 2.4 7.1 1.4 10.8L119.2 103c-1.7 6.2-7.3 10.5-13.8 10.5-1.2 0-2.5-.2-3.7-.5l-23.4-6.3v-6.3l25 6.8z"/><path fill="#D1D3D4" d="M88.2 89.9H60.3c-1.1 0-2 .9-2 2v.6c0 1.1.9 2 2 2h27.8c1.1 0 2-.9 2-2V92c.1-1.1-.8-2.1-1.9-2.1z"/><path fill="#26316B" d="M88.2 88.9H60.3c-1.7 0-3 1.4-3 3v.6c0 1.7 1.4 3 3 3h27.8c1.7 0 3-1.4 3-3V92c.1-1.7-1.2-3.1-2.9-3.1zm1 3.7c0 .6-.5 1-1 1H60.3c-.6 0-1-.5-1-1V92c0-.6.5-1 1-1h27.8c.6 0 1 .5 1 1v.6z"/><circle cx="92.8" cy="72.6" r="4.1" fill="#26316B"/><circle cx="103" cy="88.6" r="4.1" fill="#26316B"/><path fill="#D1D3D4" d="M91.6 93.2H56.9c-2.2 0-4.1 1.8-4.1 4.1v7.7c0 2.2 1.8 4.1 4.1 4.1h34.8c2.2 0 4.1-1.8 4.1-4.1v-7.7c-.1-2.3-1.9-4.1-4.2-4.1z"/><path fill="#26316B" d="M91.6 92.2H56.9c-2.8 0-5.1 2.3-5.1 5.1v7.7c0 2.8 2.3 5.1 5.1 5.1h34.8c2.8 0 5.1-2.3 5.1-5.1v-7.7c-.1-2.8-2.3-5.1-5.2-5.1zm3.1 12.8c0 1.7-1.4 3-3 3H56.9c-1.7 0-3-1.4-3-3v-7.7c0-1.7 1.4-3 3-3h34.8c1.7 0 3 1.4 3 3v7.7z"/><path fill="#CE2027" d="M115.4 117.7l.8-9.7c-13-3-27-4.4-42-4.3-15-.2-28.9 1.3-42 4.3l.8 9.7c-7.5.8-15 1.8-22.5 3l2.9 25.2C34 142 54 140 74.2 140c20.2 0 40.2 2 60.8 5.9l2.9-25.2c-7.4-1.2-14.9-2.2-22.5-3z"/><path fill="#D1D3D4" d="M85 40H63.5c-1.1 0-2 .9-2 2v.6c0 1.1.9 2 2 2H85c1.1 0 2-.9 2-2V42c.1-1.1-.8-2-2-2z"/><path fill="#26316B" d="M85 39H63.5c-1.7 0-3 1.4-3 3v.6c0 1.7 1.4 3 3 3H85c1.7 0 3-1.4 3-3V42c.1-1.7-1.3-3-3-3zm1.1 3.6c0 .6-.5 1-1 1H63.5c-.6 0-1-.5-1-1V42c0-.6.5-1 1-1H85c.6 0 1 .5 1 1v.6z"/><path fill="#D1D3D4" d="M88.2 43.3H60.3c-1.1 0-2 .9-2 2v.7c0 1.1.9 2 2 2h27.8c1.1 0 2-.9 2-2v-.6c.1-1.2-.8-2.1-1.9-2.1z"/><path fill="#26316B" d="M88.2 42.3H60.3c-1.7 0-3 1.4-3 3v.7c0 1.7 1.4 3 3 3h27.8c1.7 0 3-1.4 3-3v-.6c.1-1.7-1.2-3.1-2.9-3.1zm1 3.7c0 .6-.5 1-1 1H60.3c-.6 0-1-.5-1-1v-.6c0-.6.5-1 1-1h27.8c.6 0 1 .5 1 1v.6z"/><path fill="#D1D3D4" d="M83.6 48H65c.8 15.7-3.5 41.9-3.5 41.9h25.6S82.8 63.7 83.6 48z"/><path fill="#26316B" d="M88.1 89.8c0-.3-4.3-26.3-3.5-41.7l.1-1.1H63.9l.1 1.1c.8 15.4-3.4 41.5-3.5 41.7l-.3 1.2h28l-.1-1.2zm-13.8-.9H62.6c.8-5.2 3.9-26.1 3.4-39.9h16.6c-.5 13.8 2.6 34.7 3.4 39.9H74.3z"/><path fill="#C82027" d="M116.2 108c-12.4-2.8-25.7-4.3-39.8-4.3H72c-14.2 0-27.4 1.5-39.8 4.3l.8 9.7c-7.5.8-15 1.8-22.5 3l2.9 25.2C34 142 54 140 74.2 140c20.2 0 40.2 2 60.8 5.9l2.9-25.2c-7.5-1.2-15-2.2-22.5-3l.8-9.7z"/><path fill="#26316B" d="M139 114.7c-5.5-.9-11.2-1.7-17-2.4l.3-3.8.4-5.3-5.2-1.2c-13-3-26.8-4.5-41.2-4.5h-4.4c-14.4 0-28.2 1.5-41.2 4.5l-5.2 1.2.4 5.3.3 3.8c-5.7.7-11.4 1.5-17 2.4l-5.7.9.7 5.8 2.9 25.2.8 6.5 6.4-1.2c20.3-3.9 39.8-5.8 59.6-5.8 19.9 0 39.4 1.9 59.6 5.8l6.4 1.2.8-6.5 2.9-25.2.7-5.8-5.3-.9zm-4 31.2c-20.6-3.9-40.6-5.9-60.8-5.9-20.2 0-40.2 2-60.8 5.9l-2.9-25.2c7.5-1.2 15-2.2 22.5-3l-.8-9.7c12.4-2.8 25.7-4.3 39.8-4.3h4.4c14.2 0 27.4 1.5 39.8 4.3l-.8 9.7c7.5.8 15 1.8 22.5 3l-2.9 25.2z"/><path fill="#D1D3D4" d="M84.5 23.5H64s-2.8 0-2.8 2.4 2.2 1.7 3.3 3.5c1.1 1.8.4 10.6.4 10.6h18.6s-.7-8.7.4-10.6c1.1-1.8 3.3-1.1 3.3-3.5s-2.7-2.4-2.7-2.4z"/><path fill="#26316B" d="M84.5 22.5H64c-1.5 0-3.8.9-3.8 3.4 0 2 1.2 2.6 2.1 3 .5.3 1 .5 1.3 1 .6.9.6 5.9.3 9.9l-.1 1.2h20.8l-.1-1.1c-.3-4-.3-9 .3-9.9.3-.5.8-.7 1.3-1 .9-.4 2.1-1 2.1-3 .1-2.6-2.2-3.5-3.7-3.5zm.8 4.6c-.6.3-1.5.7-2.2 1.8-1.1 1.7-.8 7.2-.6 10.1H66c.2-2.8.4-8.4-.6-10.1-.6-1-1.5-1.4-2.2-1.8-.8-.4-1-.5-1-1.2 0-1.3 1.5-1.4 1.8-1.4h20.6c.3 0 1.8.1 1.8 1.4-.1.8-.3.9-1.1 1.2z"/><path fill="#D1D3D4" d="M84 9.5c-2.2.7-4.6 1.2-7.2 1.3.2-2.2.6-4.6 1.2-7.2h-7.6c.7 2.6 1.1 5 1.3 7.3-2.6-.1-5-.6-7.2-1.3v7.6c2.2-.8 4.6-1.2 7.3-1.4-.1 2.7-.6 5.1-1.4 7.3H78c-.8-2.2-1.2-4.6-1.4-7.3 2.7.1 5.1.6 7.3 1.4V9.5z"/><path fill="#26316B" d="M83.6 8.6c-1.8.6-3.7 1-5.7 1.2.2-2 .6-3.9 1.1-5.9l.3-1.3H69.1l.3 1.3c.5 2 .9 4 1.1 5.9-2-.2-4-.6-5.7-1.2l-1.3-.5v10.4l1.3-.5c1.8-.6 3.8-1 5.9-1.2-.2 2.1-.6 4.1-1.2 5.9L69 24h10.4l-.4-1.3c-.6-1.8-1-3.8-1.2-5.9 2.1.2 4.1.6 5.9 1.2l1.3.5V8.1l-1.4.5zm-.6 7.1c-1.9-.5-4-.9-6.2-1l-1.1-.1.1 1.1c.1 2.2.5 4.3 1 6.2H72c.5-1.9.9-4 1-6.2l.1-1.1-1.1.1c-2.2.1-4.3.5-6.2 1v-4.8c1.9.5 4 .9 6.1 1l1.2.1-.1-1.2c-.2-2.1-.5-4.1-1-6.2h5c-.5 2.1-.8 4.1-1 6.2l-.3 1.2 1.2-.1c2.2-.1 4.2-.5 6.1-1v4.8z"/><path fill="#FFF" d="M129.9 127.1l-1.8 2.5-3-.1 1.8 2.5-1 2.9 2.9-1 2.4 1.8v-3l2.5-1.7-2.9-1"/><circle cx="109" cy="64.4" r="4.1" fill="#26316B"/><path fill="#FFF" d="M30.6 134.8c-.5-3.8-.7-5.7-1.2-9.5 0-.1 0-.2.1-.3.1-.1.2-.1.4-.2 1-.1 1.5-.2 2.5-.3.9-.1 1.7 0 2.2.3.6.3.9.9 1 1.8.1.6 0 1.1-.2 1.5-.2.4-.4.7-.8.9.5.1.9.4 1.2.7.3.3.5.9.5 1.5v.3c.1 1-.1 1.8-.5 2.3-.5.5-1.1.8-2 .9-1.1.1-1.7.2-2.8.3-.2 0-.3 0-.4-.1.1.1 0 .1 0-.1zm.5-5.8c.7-.1 1.1-.1 1.8-.2.6-.1 1-.3 1.3-.5.2-.3.3-.7.3-1.3-.1-1-.8-1.4-2-1.3-.7.1-1.1.1-1.8.2.2 1.2.3 1.9.4 3.1zm.6 5c.8-.1 1.2-.1 1.9-.2 1.2-.1 1.7-.9 1.6-2.1v-.2c-.1-.7-.3-1.1-.6-1.4-.3-.3-.8-.4-1.4-.3-.8.1-1.2.1-1.9.2.1 1.6.2 2.4.4 4zm7-2.7c-.2-1.7-.3-2.6-.4-4.3-.1-1.1.1-1.9.6-2.4.5-.6 1.3-.9 2.2-1 1-.1 1.7.1 2.4.5.6.4 1 1.2 1.1 2.3.1 1.7.2 2.6.4 4.3.1 1.1-.1 1.9-.6 2.4s-1.2.9-2.2.9c-.9.1-1.7-.1-2.3-.5-.7-.4-1.1-1.1-1.2-2.2zm1.2-.1c.1 1.3.8 1.9 2.1 1.8.6-.1 1-.3 1.3-.6.3-.4.4-.9.4-1.6-.1-1.7-.2-2.6-.4-4.3-.1-.7-.3-1.2-.6-1.5-.4-.3-.9-.4-1.5-.4-1.3.1-1.8.9-1.7 2.2.2 1.8.3 2.7.4 4.4zm7.1 1.9v-.1c.9-3.9 1.3-5.8 2.3-9.7.1-.3.3-.4.7-.5.4 0 .7.1.8.4 1.5 3.7 2.2 5.6 3.6 9.3v.1c0 .1-.1.2-.2.3-.2.1-.3.2-.5.2s-.4-.1-.4-.2c-.3-.8-.5-1.2-.8-2.1-1.5.1-2.3.1-3.8.3-.2.9-.3 1.3-.5 2.1 0 .2-.2.3-.4.3s-.3 0-.5-.1-.3-.2-.3-.3zm1.8-3c1.3-.1 1.9-.1 3.2-.2l-2-5.2c-.4 2.1-.7 3.2-1.2 5.4zm7.5 2.4l-.5-9.5c0-.1 0-.2.1-.3.1-.1.2-.1.3-.1 1.1-.1 1.6-.1 2.7-.1 1 0 1.8.1 2.4.6.6.4.9 1.1 1 2.2.1 1.6-.6 2.5-2.1 2.9.9 1.6 1.4 2.3 2.3 3.9 0 .1.1.1.1.2 0 .2-.1.3-.2.4-.1.1-.3.2-.5.2s-.4-.1-.6-.4c-.9-1.6-1.4-2.4-2.3-4.1-.7 0-1 0-1.7.1.1 1.7.1 2.5.2 4.2 0 .1 0 .2-.2.3-.1.1-.3.1-.4.1-.2 0-.3 0-.4-.1-.1-.2-.2-.3-.2-.5zm1-5.2c.7 0 1.1-.1 1.9-.1 1.3-.1 2-.7 1.9-1.9 0-1.2-.7-1.8-2.1-1.8-.8 0-1.1 0-1.9.1 0 1.5.1 2.2.2 3.7zm7.5 4.9c-.1-3.8-.2-5.7-.3-9.6 0-.1 0-.2.1-.3.1-.1.2-.1.4-.1 1 0 1.6 0 2.6-.1 1 0 1.7.2 2.3.7s.9 1.3.9 2.3v4.2c0 1.1-.3 1.9-.8 2.4-.6.5-1.3.8-2.2.8-1 0-1.5 0-2.5.1-.2 0-.3 0-.4-.1-.1-.1-.1-.2-.1-.3zm1.1-.7h1.9c.6 0 1.1-.2 1.4-.5.3-.3.5-.8.5-1.5 0-1.7 0-2.5-.1-4.2 0-.7-.2-1.2-.5-1.5-.3-.3-.8-.5-1.4-.5h-1.9c0 3.3.1 4.9.1 8.2zm11.1-2v-4.3c0-1.1.3-1.9.9-2.3s1.3-.7 2.3-.7c1 0 1.7.3 2.3.7.6.5.9 1.1.8 1.9 0 .2-.1.4-.2.5-.1.1-.3.1-.5.1-.4 0-.6-.2-.6-.4-.1-1.1-.7-1.7-1.9-1.7-1.3 0-1.9.6-1.9 2v4.3c0 1.3.6 2 1.9 2 .6 0 1.1-.1 1.4-.5s.5-.8.5-1.5v-1.5h-1.7c-.1 0-.2-.1-.3-.2-.1-.1-.1-.2-.1-.4s0-.2.1-.3c.1-.1.2-.1.3-.1 1 0 1.5 0 2.5.1.1 0 .2 0 .3.1.1.1.1.2.1.3 0 .8 0 1.2-.1 2 0 1.1-.3 1.8-.9 2.3-.6.5-1.3.7-2.3.7-.9 0-1.7-.3-2.2-.8-.4-.4-.7-1.2-.7-2.3zm7.9 2.7v-.1c1.3-3.7 1.9-5.6 3.3-9.4.1-.3.4-.4.8-.4s.7.2.7.4c1 3.8 1.5 5.8 2.5 9.6v.1c0 .1-.1.2-.3.3-.2.1-.3.1-.5.1s-.4-.1-.4-.3c-.2-.9-.3-1.3-.5-2.1-1.5-.1-2.3-.1-3.8-.2-.3.8-.4 1.2-.7 2.1-.1.2-.2.3-.4.3s-.3-.1-.5-.2c-.1 0-.2-.1-.2-.2zm2.2-2.8c1.3 0 1.9.1 3.2.1-.5-2.2-.8-3.3-1.4-5.4-.7 2.1-1.1 3.1-1.8 5.3zm7.1 3.2l.5-9.4c0-.4.2-.6.6-.5.4 0 .7.3.9.8.8 1.8 1.2 2.7 2 4.4 1-1.6 1.5-2.5 2.6-4.1.3-.5.7-.7 1-.7.4 0 .6.2.6.6-.3 3.7-.4 5.6-.7 9.4 0 .1-.1.2-.2.3-.1.1-.3.1-.4.1-.2 0-.3-.1-.4-.1-.1-.1-.2-.2-.2-.3.2-3 .3-4.5.6-7.4-1 1.5-1.5 2.3-2.5 3.9-.1.2-.3.3-.5.3s-.3-.1-.4-.4c-.8-1.7-1.1-2.5-1.9-4.2l-.5 7.5c0 .1-.1.2-.2.3-.1.1-.3.1-.4.1-.2 0-.3-.1-.4-.1 0-.2-.1-.3-.1-.5zm10.4.8c.3-3.8.5-5.7.8-9.5 0-.1.1-.2.2-.3.1-.1.3-.1.4-.1l5.2.5c.1 0 .2.1.3.2.1.1.1.2.1.4s-.1.3-.2.4c-.1.1-.2.1-.3.1-1.8-.2-2.7-.3-4.5-.4-.1 1.4-.2 2.2-.3 3.6.9.1 1.4.1 2.3.2.1 0 .2.1.3.2.1.1.1.2.1.4 0 .1-.1.2-.1.3-.1.1-.2.1-.3.1-.9-.1-1.3-.1-2.2-.2-.1 1.4-.2 2.2-.3 3.6 1.8.2 2.7.2 4.4.4.1 0 .2.1.3.2.1.1.1.3.1.4 0 .1-.1.3-.1.4-.1.1-.2.1-.3.1l-5.1-.5c-.1 0-.3-.1-.4-.1-.4-.2-.5-.3-.4-.4zm7.6-.3c0-.2.1-.3.2-.4.1-.1.3-.2.4-.2.1 0 .2.1.3.2.1.1.2.3.4.4.1.2.3.3.6.5s.6.3 1 .3c.6.1 1.1 0 1.5-.3.4-.3.6-.7.7-1.2.1-.5 0-1-.3-1.3-.3-.4-.6-.7-1.1-.9-.4-.2-.9-.5-1.3-.7-.4-.2-.8-.6-1.1-1s-.4-1-.3-1.6c.1-.5.2-.9.4-1.3.2-.3.5-.6.9-.7.3-.1.7-.2 1.1-.3h1.1c.6.1 1.2.2 1.7.5.5.2.8.5.7.8 0 .1-.1.3-.2.4-.1.1-.3.2-.4.2 0 0-.3-.1-.6-.4-.4-.2-.8-.4-1.3-.4-.6-.1-1.1 0-1.5.2-.4.2-.6.5-.7 1.1 0 .4.1.8.4 1.1.3.3.7.6 1.1.8.4.2.9.5 1.3.7.4.3.8.6 1.1 1.1.3.5.4 1.1.3 1.8-.1 1-.5 1.7-1.1 2.1s-1.4.6-2.3.5c-.8-.1-1.5-.4-2.1-.8-.7-.5-1-.9-.9-1.2zm-66.1-15.4c-.3-3.3-.5-4.9-.8-8.2 0-.1 0-.2.1-.3.1-.1.2-.1.3-.1 1.8-.2 2.6-.2 4.4-.4.1 0 .2 0 .3.1.1.1.1.2.1.3 0 .1 0 .3-.1.3-.1.1-.1.1-.3.2-1.5.1-2.3.2-3.8.3.1 1.2.2 1.9.3 3.1.8-.1 1.2-.1 1.9-.2.1 0 .2 0 .3.1.1.1.1.2.1.3 0 .1 0 .2-.1.3-.1.1-.1.1-.3.1-.8.1-1.2.1-1.9.2.1 1.5.2 2.2.3 3.7 0 .1 0 .2-.1.3-.1.1-.2.1-.4.1s-.3 0-.4-.1c.2.1.1 0 .1-.1zm6.7-.6c0-.1 0-.1 0 0 .8-3.4 1.2-5.1 2-8.4.1-.2.3-.4.6-.4s.6.1.7.3l3 8c0 .1-.1.2-.2.3-.1.1-.3.1-.4.1-.2 0-.3-.1-.4-.2-.3-.7-.4-1.1-.6-1.8-1.3.1-1.9.1-3.2.2-.2.7-.3 1.1-.4 1.8 0 .2-.2.2-.4.3-.1 0-.3 0-.4-.1-.2.1-.3 0-.3-.1zm1.6-2.6c1.1-.1 1.6-.1 2.7-.2-.7-1.8-1-2.7-1.7-4.5-.3 1.9-.6 2.8-1 4.7zm8.2 2.1c-.1-3.3-.2-4.9-.3-8.2 0-.2.2-.4.5-.4.2 0 .3 0 .5.1.1.1.3.3.4.5l3.3 5.8c-.1-2.5-.1-3.7-.2-6.2 0-.1 0-.2.2-.3.1-.1.2-.1.4-.1.1 0 .3 0 .4.1.1.1.2.1.2.3.1 3.3.1 4.9.2 8.2 0 .1 0 .2-.1.3-.1.1-.2.1-.4.1-.3 0-.5-.1-.7-.4-1.3-2.4-2-3.6-3.4-6 .1 2.5.1 3.7.2 6.2 0 .1 0 .2-.1.3-.1.1-.2.1-.4.1-.1 0-.3 0-.4-.1-.2-.1-.3-.2-.3-.3zm8.8-8.4c0-.1 0-.2.1-.3.1-.1.2-.1.3-.1h5.1c.1 0 .2 0 .3.1.1.1.1.2.1.3 0 .1 0 .2-.1.3-.1.1-.2.1-.3.1h-2v7.6c0 .1-.1.2-.2.3-.1.1-.2.1-.4.1-.1 0-.3 0-.4-.1-.1-.1-.2-.2-.2-.3v-7.6h-2c-.1 0-.2 0-.3-.1v-.3zm7.9 8.1c1.1-3.3 1.6-4.9 2.7-8.2.1-.2.3-.3.6-.3.4 0 .6.1.6.4.9 3.3 1.4 4.9 2.3 8.2 0 .1-.1.2-.2.3-.1.1-.3.1-.4.1-.2 0-.3-.1-.4-.2l-.5-1.8c-1.3 0-2-.1-3.3-.1-.2.7-.3 1.1-.6 1.8-.1.2-.2.2-.4.2-.1 0-.3 0-.4-.1.1-.1 0-.2 0-.3zm1.8-2.4c1.1 0 1.7 0 2.7.1-.5-1.9-.7-2.8-1.3-4.6-.5 1.7-.8 2.6-1.4 4.5zm7.6 1.9c0-.1.1-.3.2-.4.1-.1.2-.2.3-.2.1 0 .2.1.3.2.1.1.2.2.3.4.1.1.3.3.6.4.3.1.5.2.9.2.5 0 1-.1 1.3-.3.3-.2.5-.6.5-1.1 0-.4-.1-.8-.4-1.1-.3-.3-.6-.5-1-.7-.4-.2-.8-.3-1.2-.5-.4-.2-.7-.5-1-.8-.3-.4-.4-.8-.4-1.4 0-.4.1-.8.3-1.1.2-.3.4-.5.7-.7s.6-.2.9-.3c.3-.1.6-.1 1-.1.5 0 1 .1 1.5.3.5.2.7.4.7.6 0 .1-.1.2-.1.4-.1.1-.2.2-.3.2l-.6-.3c-.3-.2-.7-.3-1.2-.3s-.9.1-1.2.2-.5.5-.5.9.1.7.4.9c.3.2.6.4 1 .6.4.2.8.3 1.2.5.4.2.7.5 1 .9s.4.9.3 1.5c-.1.8-.3 1.5-.9 1.8-.5.4-1.2.6-2 .5-.7 0-1.3-.2-1.8-.5-.6-.1-.8-.4-.8-.7zm8.9-6.7c0-.1.1-.2.2-.3.1-.1.3-.1.4-.1.2 0 .3.1.4.3.8 1.7 1.1 2.6 1.9 4.3l2.5-4c.1-.2.2-.2.4-.2s.3.1.4.2.2.2.2.3c0 .1 0 .1-.1.2l-3 4.5v.1c-.1 1.2-.2 1.8-.3 3.1 0 .1-.1.2-.2.3-.1.1-.2.1-.4.1-.1 0-.3-.1-.4-.1-.1-.1-.1-.2-.1-.3.1-1.2.2-1.8.3-3.1v-.1l-2.2-4.9c.1-.2 0-.3 0-.3zm-78.7 18l1.8 2.5 3-.1-1.8 2.5 1 2.9-2.8-1-2.5 1.8v-3l-2.4-1.7 2.9-1"/></svg>